<svg width="17" height="32" viewBox="0 0 17 32" fill="none" xmlns="http://www.w3.org/2000/svg">
<path d="M1.39143 29.724C1.26408 29.847 1.1625 29.9941 1.09262 30.1568C1.02275 30.3194 0.985964 30.4944 0.984425 30.6714C0.982887 30.8485 1.01662 31.024 1.08366 31.1879C1.1507 31.3518 1.24971 31.5006 1.3749 31.6258C1.50009 31.751 1.64896 31.85 1.81282 31.9171C1.97668 31.9841 2.15226 32.0178 2.32929 32.0163C2.50633 32.0148 2.68129 31.978 2.84397 31.9081C3.00664 31.8382 3.15376 31.7367 3.27676 31.6093L14.1728 20.7133C15.4209 19.4623 16.1219 17.7672 16.1219 16C16.1219 14.2328 15.4209 12.5377 14.1728 11.2866L3.27676 0.39064C3.02529 0.147762 2.68849 0.0133699 2.33889 0.0164078C1.9893 0.0194457 1.65488 0.159671 1.40767 0.406882C1.16046 0.654093 1.02023 0.988509 1.01719 1.3381C1.01416 1.6877 1.14855 2.0245 1.39143 2.27597L12.2874 13.172C13.0373 13.9221 13.4586 14.9393 13.4586 16C13.4586 17.0606 13.0373 18.0779 12.2874 18.828L1.39143 29.724Z" fill="#2A6CEA"/>
</svg>
