<svg width="24" height="24" viewBox="0 0 24 24" fill="none" xmlns="http://www.w3.org/2000/svg">
<path d="M16.2426 14.8286L13.4142 12.0002L16.2426 9.17175C16.4302 8.98421 16.5355 8.72986 16.5355 8.46464C16.5355 8.19942 16.4302 7.94507 16.2426 7.75753C16.0551 7.57 15.8008 7.46464 15.5355 7.46464C15.2703 7.46464 15.016 7.57 14.8284 7.75753L12 10.586L9.17157 7.75753C8.98404 7.57 8.72968 7.46464 8.46447 7.46464C8.19925 7.46464 7.9449 7.57 7.75736 7.75753C7.56982 7.94507 7.46447 8.19942 7.46447 8.46464C7.46447 8.72986 7.56982 8.98421 7.75736 9.17175L10.5858 12.0002L7.75736 14.8286C7.56982 15.0161 7.46447 15.2705 7.46447 15.5357C7.46447 15.8009 7.56982 16.0553 7.75736 16.2428C7.9449 16.4304 8.19925 16.5357 8.46447 16.5357C8.72968 16.5357 8.98404 16.4304 9.17157 16.2428L12 13.4144L14.8284 16.2428C15.016 16.4304 15.2703 16.5357 15.5355 16.5357C15.8008 16.5357 16.0551 16.4304 16.2426 16.2428C16.4302 16.0553 16.5355 15.8009 16.5355 15.5357C16.5355 15.2705 16.4302 15.0161 16.2426 14.8286Z" fill="#191C1F"/>
<circle cx="12" cy="12" r="11" stroke="#191C1F" stroke-width="2"/>
</svg>
