<svg width="120" height="24" viewBox="0 0 120 24" fill="none" xmlns="http://www.w3.org/2000/svg">
<circle cx="25" cy="12" r="12" fill="#ECEFF2"/>
<circle cx="12" cy="12" r="12" fill="#2A6CEA"/>
<path d="M51.22 18.2C48.9667 18.2 47.84 17.1 47.84 14.9V9.6H46.5V7.54H47.84V5.28H50.72V7.54H52.92V9.6H50.72V14.64C50.72 15.4667 51.1067 15.88 51.88 15.88C52.3067 15.88 52.6733 15.8133 52.98 15.68V17.92C52.4467 18.1067 51.86 18.2 51.22 18.2ZM59.9934 18.22C58.3668 18.22 57.0668 17.7467 56.0934 16.8C55.0534 15.84 54.5334 14.54 54.5334 12.9V12.74C54.5334 11.1133 55.0534 9.79333 56.0934 8.78C57.1068 7.79333 58.3801 7.3 59.9134 7.3C61.3668 7.3 62.5534 7.72 63.4734 8.56C64.5001 9.49333 65.0134 10.8467 65.0134 12.62V13.42H57.4734C57.5134 14.3 57.7534 14.98 58.1934 15.46C58.6468 15.9267 59.2734 16.16 60.0734 16.16C61.3268 16.16 62.0534 15.6733 62.2534 14.7H64.9934C64.8201 15.8333 64.3001 16.7067 63.4334 17.32C62.5801 17.92 61.4334 18.22 59.9934 18.22ZM62.1934 11.64C62.1001 10.08 61.3401 9.3 59.9134 9.3C59.2601 9.3 58.7201 9.50667 58.2934 9.92C57.8801 10.32 57.6201 10.8933 57.5134 11.64H62.1934ZM71.0438 18.22C69.6304 18.22 68.5304 17.92 67.7438 17.32C66.9571 16.72 66.5371 15.8533 66.4838 14.72H69.1838C69.2638 15.2267 69.4371 15.6 69.7038 15.84C69.9704 16.08 70.4104 16.2 71.0238 16.2C72.1171 16.2 72.6638 15.82 72.6638 15.06C72.6638 14.7 72.5038 14.4333 72.1838 14.26C71.8638 14.0733 71.3171 13.9267 70.5438 13.82C69.1304 13.5933 68.1438 13.2533 67.5838 12.8C66.9838 12.3333 66.6838 11.5867 66.6838 10.56C66.6838 9.53333 67.1104 8.71333 67.9638 8.1C68.6971 7.56667 69.6504 7.3 70.8238 7.3C72.0371 7.3 73.0171 7.54 73.7638 8.02C74.5504 8.55333 75.0104 9.39333 75.1438 10.54H72.4838C72.4038 10.1 72.2371 9.78 71.9838 9.58C71.7304 9.38 71.3504 9.28 70.8438 9.28C70.3771 9.28 70.0104 9.38 69.7438 9.58C69.4904 9.78 69.3638 10.04 69.3638 10.36C69.3638 10.6933 69.5038 10.94 69.7838 11.1C70.0771 11.26 70.6104 11.3933 71.3838 11.5C72.7571 11.6867 73.7638 12 74.4038 12.44C75.0971 12.96 75.4438 13.74 75.4438 14.78C75.4438 15.9 75.0571 16.7533 74.2838 17.34C73.5238 17.9267 72.4438 18.22 71.0438 18.22ZM81.3372 18.2C79.0839 18.2 77.9572 17.1 77.9572 14.9V9.6H76.6172V7.54H77.9572V5.28H80.8372V7.54H83.0372V9.6H80.8372V14.64C80.8372 15.4667 81.2239 15.88 81.9972 15.88C82.4239 15.88 82.7905 15.8133 83.0972 15.68V17.92C82.5639 18.1067 81.9772 18.2 81.3372 18.2ZM85.5506 3.7H88.7906V15.46H94.6106V18H85.5506V3.7ZM99.5559 18.22C98.5426 18.22 97.7226 17.9733 97.0959 17.48C96.4026 16.9333 96.0559 16.14 96.0559 15.1C96.0559 13.94 96.5626 13.0733 97.5759 12.5C98.4826 11.9933 99.7893 11.74 101.496 11.74H102.676V11.32C102.676 10.6533 102.549 10.1667 102.296 9.86C102.056 9.55333 101.616 9.4 100.976 9.4C99.9493 9.4 99.3559 9.89333 99.1959 10.88H96.4559C96.5359 9.70667 97.0226 8.8 97.9159 8.16C98.7293 7.58667 99.8093 7.3 101.156 7.3C102.503 7.3 103.556 7.59333 104.316 8.18C105.129 8.82 105.536 9.82 105.536 11.18V18H102.716V16.74C102.009 17.7267 100.956 18.22 99.5559 18.22ZM100.416 16.2C101.069 16.2 101.609 16.0333 102.036 15.7C102.463 15.3667 102.676 14.9133 102.676 14.34V13.46H101.556C100.676 13.46 100.009 13.5733 99.5559 13.8C99.1159 14.0267 98.8959 14.4067 98.8959 14.94C98.8959 15.78 99.4026 16.2 100.416 16.2ZM114.499 18.22C113.713 18.22 113.026 18.0533 112.439 17.72C111.866 17.3733 111.439 16.9133 111.159 16.34V18H108.259V2.8H111.159V9.18C111.466 8.63333 111.913 8.18667 112.499 7.84C113.099 7.48 113.766 7.3 114.499 7.3C115.819 7.3 116.899 7.76 117.739 8.68C118.619 9.64 119.059 10.9667 119.059 12.66V12.82C119.059 14.5 118.626 15.8267 117.759 16.8C116.933 17.7467 115.846 18.22 114.499 18.22ZM113.639 15.96C114.439 15.96 115.053 15.7 115.479 15.18C115.906 14.6467 116.119 13.8667 116.119 12.84V12.68C116.119 11.64 115.893 10.8533 115.439 10.32C114.986 9.78667 114.379 9.52 113.619 9.52C112.833 9.52 112.206 9.79333 111.739 10.34C111.286 10.8733 111.059 11.6533 111.059 12.68V12.84C111.059 13.8667 111.286 14.6467 111.739 15.18C112.193 15.7 112.826 15.96 113.639 15.96Z" fill="white"/>
</svg>
