<svg width="72" height="72" viewBox="0 0 72 72" fill="none" xmlns="http://www.w3.org/2000/svg">
<path d="M69.8067 40.7101C62.2427 29.1281 63.0467 17.2561 59.4007 11.6741C55.7547 6.09208 44.8887 -3.53192 19.2147 13.2381C-6.45926 30.0081 0.0707404 48.2381 4.08274 54.3761C22.8587 83.1201 83.2048 61.2221 69.8067 40.7101Z" fill="#ECEFF2"/>
<path d="M37.5 22.892C37.5 23.352 37.198 23.748 36.78 23.884L27.066 27.066L23.884 36.78C23.748 37.198 23.352 37.5 22.892 37.5C22.444 37.5 22.068 37.218 21.922 36.832L13.574 14.92C13.52 14.804 13.5 14.68 13.5 14.544C13.5 13.97 13.97 13.5 14.544 13.5C14.68 13.5 14.804 13.52 14.92 13.574L36.834 21.922C37.218 22.066 37.5 22.442 37.5 22.892Z" fill="#F3F3F1"/>
<path d="M18.074 14.92C18.052 14.872 18.054 14.814 18.042 14.764L14.92 13.574C14.804 13.52 14.68 13.5 14.544 13.5C13.97 13.5 13.5 13.97 13.5 14.544C13.5 14.68 13.52 14.804 13.572 14.92L21.92 36.834C22.066 37.22 22.442 37.502 22.89 37.502C23.35 37.502 23.746 37.2 23.882 36.782L25.046 33.228L18.074 14.92Z" fill="#E1E6EA"/>
<path d="M45 58.5C52.4558 58.5 58.5 52.4558 58.5 45C58.5 37.5442 52.4558 31.5 45 31.5C37.5442 31.5 31.5 37.5442 31.5 45C31.5 52.4558 37.5442 58.5 45 58.5Z" fill="#2A6CEA"/>
<path d="M36 45C36 38.312 40.868 32.776 47.25 31.702C46.516 31.578 45.768 31.5 45 31.5C37.544 31.5 31.5 37.544 31.5 45C31.5 52.456 37.544 58.5 45 58.5C45.768 58.5 46.516 58.42 47.25 58.298C40.868 57.224 36 51.688 36 45Z" fill="#191C1F" fill-opacity="0.1"/>
<path d="M60.2578 25.3633L61.672 23.9491L64.5004 26.7776L63.0862 28.1918L60.2578 25.3633Z" fill="#C2C8CD"/>
<path d="M52.1289 17.23L53.5431 15.8158L56.3715 18.6442L54.9573 20.0584L52.1289 17.23Z" fill="#C2C8CD"/>
<path d="M60.6133 18.6459L63.4417 15.8175L64.8559 17.2317L62.0275 20.0601L60.6133 18.6459Z" fill="#C2C8CD"/>
<path d="M52.4844 26.7749L55.3128 23.9465L56.727 25.3607L53.8986 28.1891L52.4844 26.7749Z" fill="#C2C8CD"/>
<path d="M49.55 51.6599L44.05 47.1599C43.7 46.8759 43.5 46.4499 43.5 45.9999V37.4999H46.5V45.2899L51.45 49.3399L49.55 51.6599Z" fill="white"/>
<path d="M22.89 39.0001C21.842 39.0001 20.888 38.3421 20.516 37.3641L12.17 15.4541C12.066 15.2241 12 14.8941 12 14.5421C12 13.1401 13.14 12.0001 14.542 12.0001C14.894 12.0001 15.224 12.0661 15.524 12.2001L37.364 20.5181C38.34 20.8901 38.998 21.8421 38.998 22.8921C38.998 23.9961 38.292 24.9661 37.244 25.3101L28.252 28.2561L25.306 37.2481C24.964 38.2941 23.994 39.0001 22.89 39.0001ZM15.334 15.3361L22.86 35.0841L25.64 26.5981C25.788 26.1441 26.146 25.7881 26.598 25.6401L35.084 22.8601L15.334 15.3361ZM14.386 14.9741C14.392 14.9761 14.4 14.9801 14.41 14.9821L14.386 14.9741ZM14.946 14.3141L14.972 14.3821C14.964 14.3621 14.956 14.3401 14.946 14.3141Z" fill="#191C1F"/>
</svg>
