<svg width="72" height="72" viewBox="0 0 72 72" fill="none" xmlns="http://www.w3.org/2000/svg">
<path d="M69.8067 40.7101C62.2427 29.1281 63.0467 17.2561 59.4007 11.6741C55.7547 6.09208 44.8887 -3.53192 19.2147 13.2381C-6.45926 30.0081 0.0707404 48.2381 4.08274 54.3761C22.8587 83.1201 83.2048 61.2221 69.8067 40.7101Z" fill="#ECEFF2"/>
<path d="M61.9121 42.0327L63.3263 40.6185L66.1548 43.4469L64.7405 44.8611L61.9121 42.0327Z" fill="#C2C8CD"/>
<path d="M53.7812 33.9028L55.1955 32.4886L58.0239 35.3171L56.6097 36.7313L53.7812 33.9028Z" fill="#C2C8CD"/>
<path d="M62.2695 35.3271L65.098 32.4987L66.5122 33.9129L63.6837 36.7414L62.2695 35.3271Z" fill="#C2C8CD"/>
<path d="M37.9805 66.1603C36.3265 66.1603 34.9805 64.8143 34.9805 63.1603C34.9805 61.5063 36.3265 60.1603 37.9805 60.1603C39.6345 60.1603 40.9805 61.5063 40.9805 63.1603C40.9805 64.8143 39.6345 66.1603 37.9805 66.1603ZM37.9805 62.1603C37.4285 62.1603 36.9805 62.6083 36.9805 63.1603C36.9805 63.7123 37.4285 64.1603 37.9805 64.1603C38.5325 64.1603 38.9805 63.7123 38.9805 63.1603C38.9805 62.6083 38.5325 62.1603 37.9805 62.1603Z" fill="#C2C8CD"/>
<path d="M39.06 33.5001H16.5V40.5001V54.5001H23.5H30.46H45.5V40.6001V33.5001H39.06Z" fill="#F3F3F1"/>
<path d="M50.5 40.5999H45.5V54.4999H47.5H54.458H58.5V48.5999C58.5 44.1819 54.918 40.5999 50.5 40.5999Z" fill="#2A6CEA"/>
<path d="M27 58.5001C28.933 58.5001 30.5 56.9331 30.5 55.0001C30.5 53.0671 28.933 51.5001 27 51.5001C25.067 51.5001 23.5 53.0671 23.5 55.0001C23.5 56.9331 25.067 58.5001 27 58.5001Z" fill="#F3F3F1"/>
<path d="M51 58.5001C52.933 58.5001 54.5 56.9331 54.5 55.0001C54.5 53.0671 52.933 51.5001 51 51.5001C49.067 51.5001 47.5 53.0671 47.5 55.0001C47.5 56.9331 49.067 58.5001 51 58.5001Z" fill="#F3F3F1"/>
<path d="M25 36.5C31.3513 36.5 36.5 31.3513 36.5 25C36.5 18.6487 31.3513 13.5 25 13.5C18.6487 13.5 13.5 18.6487 13.5 25C13.5 31.3513 18.6487 36.5 25 36.5Z" fill="#2A6CEA"/>
<path d="M21 36H16V42.3333V55H21V42.3333V36Z" fill="#E1E6EA"/>
<path d="M45.5 40.5999V54.4999H47.5H50V40.5999H45.5Z" fill="#191C1F" fill-opacity="0.1"/>
<path d="M28 55.0001C28 53.9281 28.492 52.9821 29.25 52.3401C28.64 51.8241 27.862 51.5001 27 51.5001C25.068 51.5001 23.5 53.0681 23.5 55.0001C23.5 56.9321 25.068 58.5001 27 58.5001C27.862 58.5001 28.64 58.1761 29.25 57.6601C28.492 57.0181 28 56.0721 28 55.0001Z" fill="#D5DBE1"/>
<path d="M52 55.0001C52 53.9281 52.492 52.9821 53.25 52.3401C52.64 51.8241 51.862 51.5001 51 51.5001C49.068 51.5001 47.5 53.0681 47.5 55.0001C47.5 56.9321 49.068 58.5001 51 58.5001C51.862 58.5001 52.64 58.1761 53.25 57.6601C52.492 57.0181 52 56.0721 52 55.0001Z" fill="#D5DBE1"/>
<path d="M18 25C18 19.42 21.976 14.77 27.25 13.724C26.522 13.578 25.77 13.5 25 13.5C18.648 13.5 13.5 18.648 13.5 25C13.5 31.352 18.648 36.5 25 36.5C25.77 36.5 26.522 36.422 27.25 36.276C21.976 35.23 18 30.58 18 25Z" fill="#191C1F" fill-opacity="0.1"/>
<path d="M24.9995 30.5002C24.6155 30.5002 24.2315 30.3542 23.9395 30.0602L17.9395 24.0601L20.0615 21.9381L25.0015 26.8782L29.9415 21.9381L32.0635 24.0601L26.0635 30.0602C25.7675 30.3542 25.3835 30.5002 24.9995 30.5002Z" fill="white"/>
<path d="M25 56.0001H16.5C15.672 56.0001 15 55.3281 15 54.5001V38.7801H18V53.0001H25V56.0001Z" fill="#191C1F"/>
<path d="M45.499 56.0001H28.959V53.0001H43.999V35.0002H38.779V32.0002H45.499C46.327 32.0002 46.999 32.6722 46.999 33.5002V54.5001C46.999 55.3281 46.327 56.0001 45.499 56.0001Z" fill="#191C1F"/>
<path d="M58.5 56H52.958V53H57V48.6C57 45.016 54.084 42.1 50.5 42.1H47V53H49V56H45.5C44.672 56 44 55.328 44 54.5V40.6C44 39.772 44.672 39.1 45.5 39.1H50.5C55.738 39.1 60 43.362 60 48.6V54.5C60 55.328 59.328 56 58.5 56Z" fill="#191C1F"/>
<path d="M27 60.0001C24.244 60.0001 22 57.7561 22 55.0001C22 52.2441 24.244 50.0001 27 50.0001C29.756 50.0001 32 52.2441 32 55.0001C32 57.7561 29.756 60.0001 27 60.0001ZM27 53.0001C25.898 53.0001 25 53.8981 25 55.0001C25 56.1021 25.898 57.0001 27 57.0001C28.102 57.0001 29 56.1021 29 55.0001C29 53.8981 28.102 53.0001 27 53.0001Z" fill="#191C1F"/>
<path d="M51 60.0001C48.244 60.0001 46 57.7561 46 55.0001C46 52.2441 48.244 50.0001 51 50.0001C53.756 50.0001 56 52.2441 56 55.0001C56 57.7561 53.756 60.0001 51 60.0001ZM51 53.0001C49.898 53.0001 49 53.8981 49 55.0001C49 56.1021 49.898 57.0001 51 57.0001C52.102 57.0001 53 56.1021 53 55.0001C53 53.8981 52.102 53.0001 51 53.0001Z" fill="#191C1F"/>
</svg>
