<svg width="72" height="72" viewBox="0 0 72 72" fill="none" xmlns="http://www.w3.org/2000/svg">
<path d="M8.33397 55.246C8.33397 41.412 1.16797 31.912 1.16797 25.246C1.16797 18.58 4.99997 4.58004 35.666 4.58004C66.332 4.58004 70.832 23.414 70.832 30.746C70.834 65.08 8.33397 79.746 8.33397 55.246Z" fill="#ECEFF2"/>
<path d="M53.25 16.5001H55.25V20.5001H53.25V16.5001Z" fill="#C2C8CD"/>
<path d="M57.75 22.5H61.75V24.5H57.75V22.5Z" fill="#C2C8CD"/>
<path d="M42.5 48.64V17.5C42.5 15.29 40.71 13.5 38.5 13.5H17.5C15.29 13.5 13.5 15.29 13.5 17.5V48.64C13.5 50.85 15.29 52.64 17.5 52.64H38.5C40.71 52.64 42.5 50.85 42.5 48.64Z" fill="#F3F3F1"/>
<path d="M48 58.5001C48 58.5001 58.5 54.0361 58.5 45.1081C58.5 41.5361 58.5 37.0721 58.5 37.0721L48 33.5001L37.5 37.0721V45.1081C37.5 54.0361 48 58.5001 48 58.5001Z" fill="#2A6CEA"/>
<path d="M18 48.64V17.5C18 15.29 19.79 13.5 22 13.5H17.5C15.29 13.5 13.5 15.29 13.5 17.5V48.64C13.5 50.85 15.29 52.64 17.5 52.64H22C19.79 52.64 18 50.85 18 48.64Z" fill="#E1E6EA"/>
<path d="M42 45.1081C42 39.7501 42 37.0721 42 37.0721L50.25 34.2661L48 33.5001L37.5 37.0721V45.1081C37.5 54.0361 48 58.5001 48 58.5001C48 58.5001 48.942 58.0941 50.25 57.3021C47.166 55.4341 42 51.3761 42 45.1081Z" fill="#191C1F" fill-opacity="0.1"/>
<path d="M30.5 54.0001H17.5C14.466 54.0001 12 51.5341 12 48.5001V17.5001C12 14.4661 14.466 12.0001 17.5 12.0001H38.5C41.534 12.0001 44 14.4661 44 17.5001V28.5001H41V17.5001C41 16.1221 39.878 15.0001 38.5 15.0001H17.5C16.122 15.0001 15 16.1221 15 17.5001V48.5001C15 49.8781 16.122 51.0001 17.5 51.0001H30.5V54.0001Z" fill="#191C1F"/>
<path d="M20.5595 37.5599L18.4395 35.4399L23.4395 30.4399C23.9175 29.9599 24.6554 29.8619 25.2434 30.1979L27.7894 31.6539L33.4814 26.3999L35.5174 28.6059L29.0174 34.6059C28.5354 35.0499 27.8214 35.1299 27.2555 34.8059L24.7495 33.3739L20.5595 37.5599Z" fill="#191C1F"/>
<path d="M36 34H33V29H28V26H34.5C35.328 26 36 26.672 36 27.5V34Z" fill="#191C1F"/>
<path d="M47.4995 50.9999C47.1035 50.9999 46.7195 50.8419 46.4395 50.5599L42.4395 46.5599L44.5615 44.4379L47.3395 47.2159L52.2994 40.5999L54.6974 42.3999L48.6975 50.3999C48.4375 50.7479 48.0395 50.9659 47.6035 50.9959C47.5695 50.9999 47.5355 50.9999 47.4995 50.9999Z" fill="white"/>
</svg>
