<svg width="72" height="72" viewBox="0 0 72 72" fill="none" xmlns="http://www.w3.org/2000/svg">
<path d="M26.8218 70.0939C39.4178 64.3759 51.0318 66.9759 57.1018 64.2219C63.1718 61.4659 74.3358 52.1899 61.6618 24.2659C48.9878 -3.65808 29.9798 0.0239234 23.3018 3.05592C-7.96218 17.2439 4.51182 80.2179 26.8218 70.0939Z" fill="#ECEFF2"/>
<path d="M27.2939 19.7H27.1139L31.7999 15.952C32.8199 15.14 32.2399 13.5 30.9459 13.5H18.1319C16.8359 13.5 16.2579 15.14 17.2779 15.952L21.9619 19.7H21.7819C17.0139 22.496 13.1699 30.46 13.1699 36.234C13.1699 40.368 15.2359 44.5 20.0579 44.5H29.3579C34.1799 44.5 36.2459 40.366 36.2459 36.234C36.2499 30.46 32.0619 22.496 27.2939 19.7Z" fill="#F3F3F1"/>
<path d="M17.6719 36.234C17.6719 30.462 21.5159 22.498 26.2839 19.7H26.4639L21.7799 15.952C20.7599 15.14 21.3399 13.5 22.6339 13.5H18.1339C16.8379 13.5 16.2599 15.14 17.2799 15.952L21.9639 19.7H21.7839C17.0159 22.496 13.1719 30.46 13.1719 36.234C13.1719 40.368 15.2379 44.5 20.0599 44.5H24.5599C19.7379 44.5 17.6719 40.366 17.6719 36.234Z" fill="#E1E6EA"/>
<path d="M49.7158 19.7H49.5358L54.2198 15.952C55.2398 15.14 54.6598 13.5 53.3658 13.5H40.5518C39.2558 13.5 38.6778 15.14 39.6978 15.952L44.3818 19.7H44.2018C39.4338 22.496 35.5898 30.46 35.5898 36.234C35.5898 40.368 37.6558 44.5 42.4778 44.5H51.7778C56.5998 44.5 58.6658 40.366 58.6658 36.234C58.6718 30.46 54.4838 22.496 49.7158 19.7Z" fill="#F3F3F1"/>
<path d="M40.0938 36.234C40.0938 30.462 43.9378 22.498 48.7058 19.7H48.8858L44.1998 15.952C43.1798 15.14 43.7598 13.5 45.0538 13.5H40.5538C39.2578 13.5 38.6798 15.14 39.6998 15.952L44.3838 19.7H44.2038C39.4358 22.496 35.5918 30.46 35.5918 36.234C35.5918 40.368 37.6578 44.5 42.4798 44.5H46.9798C42.1618 44.5 40.0938 40.366 40.0938 36.234Z" fill="#E1E6EA"/>
<path d="M38.835 33.6999H38.655L43.339 29.9519C44.359 29.1399 43.779 27.4999 42.485 27.4999H29.671C28.375 27.4999 27.797 29.1399 28.817 29.9519L33.501 33.6999H33.321C28.553 36.4959 24.709 44.4599 24.709 50.2339C24.709 54.3679 26.775 58.4999 31.597 58.4999H40.897C45.719 58.4999 47.785 54.3659 47.785 50.2339C47.789 44.4599 43.601 36.4959 38.835 33.6999Z" fill="#2A6CEA"/>
<path d="M35.06 52.4C34.664 52.4 34.28 52.242 34 51.96L30 47.96L32.122 45.838L34.9 48.616L39.86 42L42.258 43.8L36.258 51.8C35.998 52.148 35.6 52.366 35.164 52.396C35.13 52.4 35.096 52.4 35.06 52.4Z" fill="white"/>
<path d="M29.2129 50.2339C29.2129 44.4619 33.0569 36.4979 37.8249 33.6999H38.0049L33.3209 29.9519C32.3009 29.1399 32.8809 27.4999 34.1749 27.4999H29.6749C28.3789 27.4999 27.8009 29.1399 28.8209 29.9519L33.5049 33.6999H33.3249C28.5569 36.4959 24.7129 44.4599 24.7129 50.2339C24.7129 54.3679 26.7789 58.4999 31.6009 58.4999H36.1009C31.2789 58.4999 29.2129 54.3659 29.2129 50.2339Z" fill="#191C1F" fill-opacity="0.1"/>
<path d="M59.9316 54.8193L62.7601 51.9909L64.1743 53.4051L61.3459 56.2336L59.9316 54.8193Z" fill="#C2C8CD"/>
<path d="M51.8008 62.9486L54.6292 60.1202L56.0434 61.5344L53.215 64.3629L51.8008 62.9486Z" fill="#C2C8CD"/>
<path d="M51.8008 53.0505L53.215 51.6363L56.0434 54.4647L54.6292 55.8789L51.8008 53.0505Z" fill="#C2C8CD"/>
<path d="M59.9297 61.1812L61.3439 59.767L64.1723 62.5954L62.7581 64.0096L59.9297 61.1812Z" fill="#C2C8CD"/>
<path d="M28.3809 20.8721L26.5069 18.5281L30.9189 15.0001H18.8169L23.2289 18.5281L21.3549 20.8721L16.6709 17.1241C15.7009 16.3521 15.3409 15.0941 15.7509 13.9241C16.1589 12.7561 17.2249 12.0001 18.4609 12.0001H31.2749C32.5129 12.0001 33.5749 12.7561 33.9849 13.9261C34.3949 15.0961 34.0329 16.3521 33.0649 17.1261L28.3809 20.8721Z" fill="#191C1F"/>
<path d="M17.6328 18.2001H32.0988V21.2001H17.6328V18.2001Z" fill="#191C1F"/>
<path d="M20.39 46.0002C14.594 46.0002 12 41.0942 12 36.2322C12 30.3962 15.84 21.6382 21.352 18.4062L22.87 20.9922C18.75 23.4102 15 30.6742 15 36.2322C15 37.3622 15.26 43.0002 20.39 43.0002V46.0002Z" fill="#191C1F"/>
<path d="M50.6462 20.8721L48.7722 18.5281L53.1842 15.0001H41.0822L45.4942 18.5281L43.6202 20.8721L38.9362 17.1261C37.9682 16.3521 37.6062 15.0941 38.0162 13.9241C38.4262 12.7561 39.4902 12.0001 40.7262 12.0001H53.5402C54.7782 12.0001 55.8402 12.7561 56.2502 13.9261C56.6602 15.0961 56.2982 16.3521 55.3302 17.1261L50.6462 20.8721Z" fill="#191C1F"/>
<path d="M39.9004 18.2001H54.3664V21.2001H39.9004V18.2001Z" fill="#191C1F"/>
<path d="M51.6109 46.0002V43.0002C56.7389 43.0002 56.9989 37.3642 56.9989 36.2322C56.9989 30.6742 53.2489 23.4102 49.1289 20.9922L50.6469 18.4062C56.1569 21.6382 59.9989 30.3962 59.9989 36.2322C59.9989 41.0942 57.4049 46.0002 51.6109 46.0002Z" fill="#191C1F"/>
</svg>
